<?xml version="1.0" encoding="UTF-8"?>
<svg version="1.1" viewBox="0 0 500 400" xmlns="http://www.w3.org/2000/svg">
 <path d="m261.24 328.37s35.817-37.213 59.662-41.699c15.559-2.9272 46.156 11.202 46.156 11.202l17.928-41.109s-26.588-18.251-33.659-32.031c-11.564-22.536-10.455-75.265-10.455-75.265z"/>
 <path d="m135.27 37.519c-57.115 6.2544-106.79 52.241-117.98 108.51-11.329 44.512-3.3577 91.393 26.795 125.65 28.194 33.442 68.015 54.918 108.67 69.466 34.972 11.991 83.822 15.463 112.92-10.811 12.7-11.596 15.323-29.934 23.425-44.564 18.222-41.316 36.466-82.622 54.681-123.94-1.9922-38.194-32.233-67.064-62.365-86.742-36.701-22.969-79.513-37.304-122.91-38.82-7.7561-0.1297-15.565 0.23302-23.235 1.2475z"/>
 <path d="m135.12 40.55c-54.575 5.8864-102.04 49.167-112.74 102.13-10.825 41.893 1.8837 87.688 30.696 119.93 26.94 31.474 64.991 51.686 103.84 65.379 33.417 11.286 75.004 12.882 102.81-11.846 12.135-10.914 14.642-28.173 22.383-41.942 17.412-38.885 34.844-77.761 52.25-116.65-1.9037-35.947-30.8-63.118-59.592-81.638-35.069-21.618-75.978-35.109-117.45-36.536-7.4113-0.12207-14.873 0.21931-22.202 1.1741z" fill-opacity="0"/>
 <path d="m275.2 308.19s27.738-28.819 46.204-32.293c12.049-2.2669 35.745 8.6747 35.745 8.6747l13.884-31.836s-20.59-14.134-26.066-24.805c-8.9554-17.452-8.0964-58.287-8.0964-58.287z" fill="#fff"/>
 <path d="m353.38 231.09-0.34375 0.6875c-2.2187 0.92251-11.373 4.8866-15.031 8.875-7.095 7.735-11.917 18.106-13.375 28.5-0.70567 5.0324 2.4375 15.031 2.4375 15.031l0.1875-0.25-0.21875 0.40625 131.56 60.938c22.721-1.2423 34.046-49.337 29.25-59.938z"/>
 <path d="m245.35 293.96c-24.975 0-45.282 20.307-45.282 45.282s20.307 45.282 45.282 45.282 45.282-20.307 45.282-45.282-20.307-45.282-45.282-45.282z" color="#000000" style="block-progression:tb;text-indent:0;text-transform:none"/>
 <path d="m245.05 295.03c22.6 0 40.875 18.276 40.875 40.875s-18.276 40.875-40.875 40.875-40.875-18.276-40.875-40.875 18.276-40.875 40.875-40.875z" color="#000000" fill="#fff" style="block-progression:tb;text-indent:0;text-transform:none"/>
 <path d="m232.31 298.38c6.9375 0 12.548 5.6102 12.548 12.548 0 6.9375-5.6102 12.548-12.548 12.548-6.9375 0-12.548-5.6102-12.548-12.548 0-6.9375 5.6102-12.548 12.548-12.548z" color="#000000" style="block-progression:tb;text-indent:0;text-transform:none"/>
 <path d="m230.64 298.79c6.0136 0 10.877 4.8631 10.877 10.877 0 6.0136-4.8631 10.877-10.877 10.877s-10.877-4.8631-10.877-10.877c0-6.0136 4.8631-10.877 10.877-10.877z" color="#000000" fill="#fff" style="block-progression:tb;text-indent:0;text-transform:none"/>
</svg>
